<svg xmlns="http://www.w3.org/2000/svg" version="1.1" xmlns:xlink="http://www.w3.org/1999/xlink" xmlns:svgjs="http://svgjs.dev/svgjs" width="1500" height="1500" viewBox="0 0 1500 1500"><rect width="1500" height="1500" fill="#ffffff"></rect><g transform="matrix(0.6666666666666666,0,0,0.6666666666666666,248.7765957446809,575.9168386259541)"><svg viewBox="0 0 376 131" data-background-color="#ffffff" preserveAspectRatio="xMidYMid meet" height="522" width="1500" xmlns="http://www.w3.org/2000/svg" xmlns:xlink="http://www.w3.org/1999/xlink"><g id="tight-bounds" transform="matrix(1,0,0,1,0.46023999999999887,0.03130500000000325)"><svg viewBox="0 0 375.07953 130.93739" height="130.93739" width="375.07953"><g><svg></svg></g><g><svg viewBox="0 0 375.07953 130.93739" height="130.93739" width="375.07953"><g transform="matrix(1,0,0,1,-10.22024,-61.44870999999999)"><path d="M10.22 185.751v-124.302h375.08v124.302h-78.361l0-4.135h74.225v-116.032h-366.808v116.032l74.225 0 0 4.135z" fill="#000000" fill-rule="nonzero" stroke="none" stroke-width="1" stroke-linecap="butt" stroke-linejoin="miter" stroke-miterlimit="10" stroke-dasharray="" stroke-dashoffset="0" font-family="none" font-weight="none" font-size="none" text-anchor="none" style="mix-blend-mode: normal" data-fill-palette-color="tertiary"></path><g><path d="M102.429 185.421v0-9.447l-1.297-0.176c-0.064-0.192-0.064-0.384 0-0.577v0l2.193 0.048h6.469l0.016 3.715c-0.235 0.043-0.432 0.043-0.592 0v0l-0.753-2.898h-4.323v4.803l2.562-0.048 0.368-1.569c0.16-0.043 0.358-0.043 0.592 0v0c-0.043 0.598-0.064 1.286-0.064 2.066v0c0 0.715 0.016 1.409 0.048 2.081v0c-0.192 0.064-0.384 0.064-0.576 0v0l-0.352-1.665-2.578-0.048v5.492h4.803l0.753-2.898c0.16-0.043 0.358-0.043 0.592 0v0l-0.016 3.715h-6.949l-2.29 0.048c-0.064-0.192-0.064-0.384 0-0.577v0l1.329-0.176c0.043-0.544 0.064-1.174 0.065-1.889zM120.634 180.057l-1.201 0.176-2.674 3.314 2.786 3.619 1.345 0.256c0.043 0.171 0.043 0.384 0 0.641v0c-0.672-0.032-1.382-0.048-2.129-0.048v0c-0.534 0-1.249 0.011-2.146 0.032v0c-0.064-0.213-0.064-0.422 0-0.625v0l1.169-0.176-2.017-2.642-2.114 2.69 1.089 0.128c0.043 0.171 0.043 0.384 0 0.641v0c-0.672-0.032-1.222-0.048-1.649-0.048v0c-0.213 0-0.769 0.011-1.666 0.032v0c-0.064-0.213-0.064-0.422 0-0.625v0l1.201-0.176 2.642-3.282-2.834-3.715-0.977-0.224c-0.043-0.171-0.043-0.379 0-0.625v0c0.587 0.043 1.238 0.064 1.954 0.064v0c0.619 0 1.276-0.016 1.969-0.048v0c0.064 0.192 0.064 0.395 0 0.609v0l-1.153 0.208 2.082 2.722 2.178-2.77-1.089-0.128c-0.043-0.171-0.043-0.384 0-0.641v0c0.587 0.043 1.121 0.064 1.601 0.064v0c0.395 0 0.939-0.016 1.633-0.048v0c0.064 0.213 0.064 0.422 0 0.625zM126.463 187.47v0c0.705 0 1.263-0.342 1.674-1.024 0.41-0.683 0.615-1.713 0.615-3.091v0c0-1.057-0.194-1.863-0.583-2.417-0.391-0.555-0.906-0.833-1.546-0.833v0c-0.939 0-1.751 0.454-2.434 1.361v0 4.98c0.598 0.683 1.356 1.025 2.274 1.024zM122.668 189.536v-7.782c0-0.715-0.016-1.217-0.048-1.505v0l-1.265-0.16c-0.032-0.171-0.032-0.374 0-0.609v0c0.747-0.053 1.665-0.165 2.754-0.336v0c0.096 0.096 0.149 0.203 0.16 0.32v0c-0.053 0.374-0.08 0.769-0.08 1.185v0c0.865-1.003 1.857-1.505 2.978-1.505v0c0.939 0 1.722 0.39 2.347 1.169 0.623 0.779 0.935 1.809 0.936 3.09v0c0 1.484-0.408 2.676-1.224 3.577-0.818 0.903-1.782 1.355-2.892 1.355v0c-0.779 0-1.494-0.251-2.145-0.752v0 3.922l1.617 0.241c0.043 0.171 0.043 0.384 0 0.64v0c-0.672-0.032-1.414-0.048-2.226-0.048v0c-0.598 0-1.345 0.011-2.241 0.032v0c-0.064-0.213-0.064-0.422 0-0.624v0l1.265-0.177c0.043-0.587 0.064-1.265 0.064-2.033zM134.308 177.863v0 9.335l1.297 0.24c0.043 0.171 0.043 0.384 0 0.641v0c-0.672-0.032-1.361-0.048-2.065-0.048v0c-0.491 0-1.185 0.011-2.082 0.032v0c-0.064-0.203-0.064-0.411 0-0.625v0l1.265-0.176c0.043-0.587 0.064-1.265 0.064-2.033v0-9.175l-1.313-0.16c-0.043-0.16-0.043-0.363 0-0.609v0c0.737-0.053 1.655-0.165 2.754-0.336v0c0.096 0.107 0.149 0.213 0.16 0.32v0c-0.053 0.278-0.08 1.142-0.08 2.594zM136.63 183.756v0c0-0.64 0.094-1.241 0.282-1.803 0.186-0.559 0.455-1.047 0.807-1.464 0.352-0.416 0.777-0.745 1.275-0.986 0.495-0.239 1.053-0.359 1.671-0.359v0c0.608 0 1.164 0.12 1.665 0.359 0.502 0.241 0.932 0.57 1.291 0.986 0.357 0.416 0.631 0.904 0.823 1.464 0.192 0.561 0.288 1.162 0.288 1.803v0c0 0.662-0.098 1.27-0.294 1.825-0.199 0.555-0.476 1.038-0.833 1.447-0.359 0.412-0.789 0.732-1.291 0.961-0.502 0.231-1.051 0.346-1.649 0.346v0c-0.63 0-1.192-0.112-1.687-0.336-0.497-0.224-0.919-0.539-1.265-0.945-0.348-0.406-0.615-0.889-0.801-1.451-0.188-0.559-0.282-1.175-0.282-1.847zM138.968 180.809v0c-0.459 0.651-0.689 1.633-0.689 2.947v0c0 0.651 0.062 1.222 0.186 1.713 0.122 0.491 0.289 0.899 0.503 1.223 0.213 0.327 0.464 0.57 0.752 0.73 0.288 0.16 0.603 0.24 0.945 0.241v0c0.331 0 0.646-0.08 0.945-0.241 0.299-0.16 0.555-0.404 0.768-0.73 0.213-0.325 0.384-0.732 0.513-1.223 0.128-0.491 0.192-1.062 0.192-1.713v0c0-0.651-0.064-1.225-0.192-1.723-0.128-0.495-0.301-0.906-0.519-1.233-0.22-0.325-0.476-0.57-0.768-0.737-0.295-0.164-0.607-0.247-0.939-0.246v0c-0.662 0-1.228 0.331-1.697 0.992zM148.831 179.464v0l-0.032 1.65c0.267-0.491 0.638-0.943 1.115-1.355 0.474-0.41 0.924-0.615 1.351-0.615v0c0.331 0 0.624 0.037 0.881 0.112v0c0.085 0.139 0.128 0.32 0.128 0.545v0c0 0.352-0.075 0.705-0.224 1.056v0c-0.384-0.107-0.753-0.16-1.105-0.16v0c-0.875 0-1.596 0.427-2.162 1.281v0l-0.032 2.802v2.418l1.778 0.24c0.043 0.171 0.043 0.384 0 0.641v0c-0.672-0.032-1.441-0.048-2.306-0.048v0c-0.651 0-1.425 0.011-2.322 0.032v0c-0.064-0.203-0.064-0.411 0-0.625v0l1.265-0.176c0.043-0.587 0.064-1.265 0.064-2.033v0-4.388c0-0.213-0.016-0.411-0.048-0.592v0l-1.265-0.16c-0.043-0.16-0.043-0.363 0-0.609v0c0.737-0.053 1.655-0.165 2.754-0.336v0c0.096 0.107 0.149 0.213 0.16 0.32zM159.703 183.499v0h-5.027c-0.096 2.722 0.721 4.083 2.45 4.083v0c0.737 0 1.489-0.326 2.257-0.976v0c0.16 0.096 0.283 0.262 0.369 0.496v0c-0.737 0.822-1.671 1.233-2.803 1.233v0c-2.605 0-3.907-1.532-3.907-4.595v0c0-1.452 0.384-2.581 1.153-3.389 0.769-0.805 1.665-1.207 2.69-1.207v0c1.121 0 1.927 0.39 2.418 1.169 0.491 0.779 0.737 1.793 0.737 3.042v0c-0.107 0.085-0.219 0.133-0.337 0.144zM156.853 179.785v0c-0.555 0-1.027 0.288-1.415 0.864-0.391 0.576-0.629 1.313-0.714 2.21v0h1.985c0.79 0 1.356-0.048 1.697-0.144v0c0-0.875-0.133-1.583-0.4-2.123-0.267-0.538-0.651-0.807-1.153-0.807zM161.657 190.353v0c-0.235-0.032-0.395-0.187-0.48-0.465v0c0.715-0.395 1.185-0.95 1.409-1.665v0h-0.048c-0.278 0-0.515-0.099-0.711-0.298-0.199-0.196-0.298-0.433-0.298-0.711v0c0-0.278 0.096-0.509 0.288-0.695 0.192-0.188 0.427-0.282 0.705-0.282v0c0.288 0 0.532 0.098 0.73 0.295 0.196 0.199 0.295 0.453 0.294 0.762v0c0 0.694-0.165 1.273-0.496 1.739-0.331 0.463-0.795 0.903-1.393 1.32zM169.038 188.047v0c-0.064-0.192-0.064-0.384 0-0.577v0l1.329-0.192c0.043-0.406 0.064-1.03 0.065-1.873v0-9.431l-1.297-0.16c-0.043-0.16-0.043-0.358 0-0.593v0c0.16 0.011 0.411 0.016 0.752 0.016v0c0.683 0 1.567-0.03 2.652-0.089 1.082-0.058 1.704-0.086 1.863-0.087v0c2.092 0 3.677 0.566 4.756 1.697 1.078 1.132 1.617 2.653 1.617 4.564v0c0 1.943-0.507 3.555-1.521 4.835-1.014 1.281-2.434 1.921-4.259 1.922v0c-0.608 0-1.414-0.007-2.418-0.023-1.003-0.017-1.724-0.026-2.161-0.025v0c-0.619 0-1.078 0.005-1.378 0.016zM174.386 187.31v0c3.01 0 4.515-1.964 4.516-5.892v0c0-1.697-0.392-3.037-1.175-4.019-0.786-0.982-1.915-1.505-3.389-1.569v0c-0.128-0.011-0.326-0.016-0.592-0.016v0c-0.566 0-1.078 0.043-1.537 0.128v0c-0.043 0.406-0.064 1.051-0.064 1.937v0 9.383c0.128 0 0.436 0.009 0.922 0.026 0.485 0.015 0.924 0.022 1.319 0.022zM185.002 182.058v0 5.14l1.297 0.24c0.011 0.053 0.019 0.101 0.026 0.144 0.004 0.043 0.006 0.091 0.006 0.145v0c0 0.053-0.002 0.109-0.006 0.166-0.006 0.06-0.015 0.122-0.026 0.186v0c-0.672-0.032-1.361-0.048-2.065-0.048v0c-0.246 0-0.541 0.003-0.887 0.009-0.348 0.004-0.746 0.012-1.195 0.023v0c-0.032-0.096-0.048-0.197-0.048-0.304v0c0-0.096 0.016-0.203 0.048-0.321v0l1.265-0.176c0.021-0.299 0.037-0.617 0.048-0.954 0.011-0.335 0.016-0.695 0.016-1.079v0-3.411c0-0.705-0.016-1.228-0.048-1.569v0l-1.265-0.16c-0.021-0.053-0.032-0.144-0.032-0.272v0c0-0.053 0-0.107 0-0.16 0-0.053 0.011-0.112 0.032-0.177v0c0.726-0.043 1.644-0.155 2.754-0.336v0c0.096 0.107 0.149 0.213 0.16 0.32v0c-0.053 0.299-0.08 1.164-0.08 2.594zM182.665 176.342v0c-0.021-0.053-0.032-0.11-0.032-0.17 0-0.058 0-0.113 0-0.166v0c0-0.288 0.121-0.521 0.362-0.698 0.239-0.175 0.535-0.263 0.887-0.263v0c0.331 0 0.601 0.098 0.81 0.295 0.207 0.199 0.311 0.469 0.31 0.81v0c0 0.278-0.12 0.502-0.358 0.672-0.241 0.171-0.549 0.256-0.923 0.257v0c-0.256 0-0.482-0.064-0.678-0.193-0.199-0.128-0.325-0.31-0.378-0.544zM190.19 187.631v0c0.576 0 1.003-0.133 1.281-0.401 0.278-0.267 0.416-0.576 0.417-0.928v0c0-0.203-0.032-0.39-0.096-0.561-0.064-0.171-0.168-0.336-0.311-0.496-0.145-0.16-0.335-0.318-0.57-0.474-0.235-0.154-0.528-0.321-0.881-0.503v0c-0.438-0.224-0.813-0.438-1.127-0.64-0.316-0.203-0.575-0.416-0.778-0.641-0.203-0.224-0.354-0.464-0.455-0.721-0.102-0.256-0.154-0.544-0.154-0.864v0c0-0.384 0.069-0.718 0.208-1.003 0.139-0.282 0.334-0.517 0.587-0.704 0.25-0.186 0.545-0.325 0.887-0.416 0.342-0.09 0.721-0.135 1.136-0.135v0c0.833 0 1.644 0.203 2.434 0.609v0 2.049h-0.752l-0.353-1.729c-0.47-0.224-0.966-0.336-1.489-0.336v0c-0.875 0-1.313 0.358-1.313 1.072v0c0 0.384 0.144 0.737 0.433 1.057 0.288 0.32 0.753 0.64 1.393 0.961v0c0.438 0.224 0.822 0.438 1.153 0.64 0.331 0.203 0.606 0.416 0.826 0.641 0.218 0.224 0.383 0.466 0.496 0.727 0.111 0.263 0.167 0.559 0.167 0.89v0c0 0.374-0.08 0.721-0.241 1.041-0.16 0.32-0.384 0.595-0.672 0.823-0.288 0.231-0.635 0.413-1.041 0.547-0.406 0.132-0.854 0.199-1.345 0.199v0c-0.95 0-1.841-0.203-2.674-0.608v0-2.05h0.753l0.352 1.585c0.544 0.246 1.121 0.368 1.729 0.369zM201.655 181.514v0c-0.224 0.235-0.753 0.347-1.585 0.336v0c-0.171-1.345-0.656-2.018-1.457-2.017v0c-0.63 0-1.164 0.363-1.602 1.088-0.438 0.726-0.656 1.681-0.656 2.867v0c0 1.217 0.192 2.154 0.576 2.811 0.384 0.655 0.961 0.983 1.73 0.983v0c0.811 0 1.607-0.331 2.385-0.992v0c0.16 0.096 0.283 0.262 0.369 0.496v0c-0.779 0.833-1.756 1.249-2.93 1.249v0c-1.121 0-2.039-0.387-2.755-1.162-0.715-0.773-1.073-1.912-1.072-3.417v0c0-1.441 0.398-2.57 1.194-3.389 0.794-0.816 1.704-1.223 2.729-1.223v0c0.811 0 1.526 0.203 2.145 0.609 0.619 0.406 0.929 0.993 0.929 1.761zM202.824 183.756v0c0-0.64 0.094-1.241 0.282-1.803 0.186-0.559 0.455-1.047 0.807-1.464 0.352-0.416 0.777-0.745 1.274-0.986 0.495-0.239 1.053-0.359 1.672-0.359v0c0.608 0 1.164 0.12 1.665 0.359 0.502 0.241 0.932 0.57 1.291 0.986 0.357 0.416 0.631 0.904 0.823 1.464 0.192 0.561 0.288 1.162 0.288 1.803v0c0 0.662-0.098 1.27-0.295 1.825-0.199 0.555-0.476 1.038-0.832 1.447-0.359 0.412-0.789 0.732-1.291 0.961-0.502 0.231-1.051 0.346-1.649 0.346v0c-0.63 0-1.192-0.112-1.688-0.336-0.497-0.224-0.919-0.539-1.265-0.945-0.348-0.406-0.615-0.889-0.8-1.451-0.188-0.559-0.282-1.175-0.282-1.847zM205.162 180.809v0c-0.459 0.651-0.689 1.633-0.689 2.947v0c0 0.651 0.062 1.222 0.186 1.713 0.122 0.491 0.289 0.899 0.503 1.223 0.213 0.327 0.464 0.57 0.752 0.73 0.288 0.16 0.603 0.24 0.945 0.241v0c0.331 0 0.646-0.08 0.945-0.241 0.299-0.16 0.555-0.404 0.768-0.73 0.213-0.325 0.384-0.732 0.512-1.223 0.128-0.491 0.192-1.062 0.193-1.713v0c0-0.651-0.064-1.225-0.193-1.723-0.128-0.495-0.301-0.906-0.518-1.233-0.22-0.325-0.476-0.57-0.769-0.737-0.295-0.164-0.607-0.247-0.938-0.246v0c-0.662 0-1.228 0.331-1.697 0.992zM219.332 180.233l-3.314 8.486h-0.337l-3.314-8.47-1.009-0.192c-0.043-0.171-0.043-0.384 0-0.641v0c0.587 0.043 1.222 0.064 1.906 0.064v0c0.608 0 1.254-0.016 1.937-0.048v0c0.064 0.213 0.064 0.422 0 0.625v0l-1.009 0.192 1.297 3.683c0.374 1.067 0.619 1.841 0.737 2.321v0h0.032c0.256-0.918 0.507-1.665 0.752-2.241v0l1.377-3.827-1.248-0.128c-0.043-0.171-0.043-0.384 0-0.641v0c0.587 0.043 1.148 0.064 1.681 0.064v0c0.448 0 1.019-0.016 1.713-0.048v0c0.064 0.213 0.064 0.422 0 0.625v0zM227.658 183.499v0h-5.027c-0.096 2.722 0.721 4.083 2.449 4.083v0c0.737 0 1.489-0.326 2.258-0.976v0c0.16 0.096 0.283 0.262 0.368 0.496v0c-0.737 0.822-1.671 1.233-2.802 1.233v0c-2.605 0-3.907-1.532-3.907-4.595v0c0-1.452 0.384-2.581 1.153-3.389 0.769-0.805 1.665-1.207 2.69-1.207v0c1.121 0 1.927 0.39 2.418 1.169 0.491 0.779 0.737 1.793 0.737 3.042v0c-0.107 0.085-0.219 0.133-0.337 0.144zM224.808 179.785v0c-0.555 0-1.027 0.288-1.415 0.864-0.391 0.576-0.629 1.313-0.714 2.21v0h1.985c0.79 0 1.356-0.048 1.697-0.144v0c0-0.875-0.133-1.583-0.4-2.123-0.267-0.538-0.651-0.807-1.153-0.807zM232.094 179.464v0l-0.032 1.65c0.267-0.491 0.638-0.943 1.114-1.355 0.474-0.41 0.924-0.615 1.352-0.615v0c0.331 0 0.624 0.037 0.88 0.112v0c0.085 0.139 0.128 0.32 0.128 0.545v0c0 0.352-0.075 0.705-0.224 1.056v0c-0.384-0.107-0.753-0.16-1.105-0.16v0c-0.875 0-1.596 0.427-2.161 1.281v0l-0.032 2.802v2.418l1.777 0.24c0.043 0.171 0.043 0.384 0 0.641v0c-0.672-0.032-1.441-0.048-2.306-0.048v0c-0.651 0-1.425 0.011-2.321 0.032v0c-0.064-0.203-0.064-0.411 0-0.625v0l1.265-0.176c0.043-0.587 0.064-1.265 0.064-2.033v0-4.388c0-0.213-0.016-0.411-0.048-0.592v0l-1.265-0.16c-0.043-0.16-0.043-0.363 0-0.609v0c0.737-0.053 1.655-0.165 2.754-0.336v0c0.096 0.107 0.149 0.213 0.16 0.32zM250.684 182.699v0h-1.057c-0.213 1.014-0.55 1.916-1.009 2.706v0l0.128 0.144c0.544 0.715 0.975 1.23 1.291 1.544 0.314 0.316 0.567 0.474 0.759 0.473v0c0.181 0 0.272-0.091 0.272-0.272v0c0-0.16-0.133-0.491-0.4-0.992v0c0.342-0.427 0.726-0.64 1.153-0.641v0c0.235 0 0.404 0.08 0.506 0.24 0.1 0.16 0.151 0.336 0.15 0.529v0c0 0.32-0.235 0.705-0.705 1.153-0.47 0.448-1.03 0.672-1.681 0.672v0c-0.448 0-0.897-0.117-1.345-0.352-0.448-0.235-0.833-0.566-1.153-0.993v0l-0.064-0.08c-0.993 0.939-2.247 1.409-3.763 1.409v0c-0.993 0-1.82-0.256-2.481-0.769-0.662-0.512-0.993-1.228-0.993-2.145v0c0-0.801 0.233-1.484 0.698-2.05 0.463-0.566 1.245-1.185 2.344-1.857v0l-0.704-0.929c-0.747-0.961-1.121-1.82-1.121-2.578v0c0-0.79 0.281-1.454 0.842-1.992 0.559-0.54 1.341-0.81 2.344-0.81v0c1.046 0 1.836 0.21 2.37 0.631 0.534 0.423 0.801 1.018 0.801 1.787v0c0 0.491-0.171 0.987-0.513 1.489-0.342 0.502-1.067 1.153-2.177 1.954v0l2.978 3.842c0.331-0.651 0.571-1.356 0.72-2.113v0h-0.992c-0.043-0.16-0.043-0.358 0-0.593v0c0.587 0.043 1.051 0.064 1.393 0.064v0c0.246 0 0.715-0.016 1.409-0.048v0c0.064 0.192 0.064 0.384 0 0.577zM244.247 187.502v0c1.132 0 2.087-0.4 2.866-1.2v0l-3.347-4.324c-1.046 0.822-1.569 1.852-1.569 3.091v0c0 0.833 0.187 1.446 0.561 1.841 0.374 0.395 0.87 0.592 1.489 0.592zM243.062 177.223v0c0 0.705 0.315 1.452 0.945 2.241v0l0.768 1.009c0.427-0.342 0.785-0.763 1.073-1.265 0.288-0.502 0.432-0.977 0.432-1.425v0c0-1.43-0.528-2.146-1.585-2.145v0c-0.48 0-0.872 0.144-1.175 0.432-0.305 0.288-0.458 0.672-0.458 1.153zM257.265 175.221v0c0.438 0 1.135-0.021 2.091-0.064 0.954-0.043 1.821-0.064 2.6-0.064v0c1.623 0 2.781 0.322 3.475 0.967 0.694 0.647 1.041 1.547 1.041 2.7v0c0 0.694-0.24 1.318-0.721 1.873-0.48 0.555-1.11 0.971-1.889 1.249v0c0.459 0.779 0.889 1.51 1.29 2.194 0.399 0.683 0.69 1.19 0.871 1.521 0.181 0.331 0.347 0.627 0.497 0.887 0.149 0.263 0.259 0.442 0.329 0.538 0.068 0.096 0.135 0.176 0.199 0.24v0l1.153 0.16c0.043 0.16 0.043 0.358 0 0.593v0h-2.722l-2.418-4.388c-0.32-0.608-0.624-1.078-0.913-1.409v0h-0.224c-0.544 0-1.094-0.032-1.649-0.096v0 5.188l1.457 0.16c0.043 0.16 0.043 0.358 0 0.593v0c-0.672-0.032-1.43-0.048-2.274-0.048v0c-0.63 0-1.393 0.011-2.289 0.032v0c-0.064-0.192-0.064-0.384 0-0.577v0l1.329-0.192c0.043-0.406 0.064-1.03 0.064-1.873v0-9.431l-1.297-0.16c-0.043-0.16-0.043-0.358 0-0.593zM260.275 177.879v0 3.587c0.331 0.043 0.811 0.064 1.441 0.064v0c0.544 0 1.012-0.089 1.403-0.266 0.389-0.175 0.679-0.41 0.871-0.704 0.192-0.292 0.331-0.594 0.416-0.903 0.085-0.31 0.128-0.635 0.128-0.977v0c0-0.918-0.23-1.633-0.688-2.146-0.459-0.512-1.222-0.769-2.29-0.768v0c-0.395 0-0.79 0.037-1.185 0.112v0c-0.064 0.608-0.096 1.276-0.096 2.001zM275.198 183.499v0h-5.028c-0.096 2.722 0.721 4.083 2.45 4.083v0c0.737 0 1.489-0.326 2.258-0.976v0c0.16 0.096 0.283 0.262 0.368 0.496v0c-0.737 0.822-1.671 1.233-2.802 1.233v0c-2.605 0-3.907-1.532-3.907-4.595v0c0-1.452 0.384-2.581 1.153-3.389 0.769-0.805 1.665-1.207 2.69-1.207v0c1.121 0 1.927 0.39 2.418 1.169 0.491 0.779 0.737 1.793 0.736 3.042v0c-0.107 0.085-0.219 0.133-0.336 0.144zM272.348 179.785v0c-0.555 0-1.027 0.288-1.416 0.864-0.391 0.576-0.629 1.313-0.714 2.21v0h1.986c0.79 0 1.356-0.048 1.697-0.144v0c0-0.875-0.133-1.583-0.4-2.123-0.267-0.538-0.651-0.807-1.153-0.807zM278.384 185.885v0c0 0.555 0.101 0.947 0.305 1.175 0.203 0.231 0.523 0.346 0.96 0.346v0c0.32 0 0.676-0.099 1.067-0.297 0.389-0.196 0.748-0.481 1.079-0.856v0-2.497c-1.099 0.064-1.943 0.258-2.53 0.582-0.587 0.327-0.881 0.842-0.881 1.547zM281.795 183.179v0-0.816c0-0.907-0.104-1.567-0.311-1.979-0.209-0.41-0.554-0.615-1.034-0.615v0c-0.491 0-0.886 0.157-1.185 0.47-0.299 0.316-0.502 0.853-0.608 1.611v0c-0.342 0.075-0.592 0.112-0.753 0.112v0c-0.416 0-0.662-0.149-0.736-0.448v0c0-0.726 0.315-1.302 0.944-1.729 0.63-0.427 1.414-0.64 2.354-0.641v0c1.035 0 1.77 0.21 2.203 0.631 0.431 0.423 0.647 1.178 0.647 2.267v0 4.516c0 0.267 0.016 0.496 0.048 0.688v0l1.265 0.16c0.043 0.16 0.043 0.363 0 0.609v0c-0.758 0.032-1.564 0.107-2.418 0.224v0c-0.085-0.085-0.139-0.192-0.16-0.32v0l-0.08-1.105c-0.886 1.014-1.873 1.521-2.962 1.521v0c-0.672 0-1.198-0.192-1.576-0.576-0.38-0.384-0.57-0.902-0.57-1.554v0c0-0.982 0.446-1.724 1.339-2.225 0.89-0.502 2.088-0.769 3.593-0.801zM293.196 177.863v7.878c0 0.715 0.016 1.217 0.048 1.505v0l1.265 0.16c0.032 0.171 0.032 0.374 0 0.609v0c-0.779 0.032-1.591 0.107-2.434 0.224v0c-0.075-0.075-0.128-0.176-0.16-0.304v0l-0.08-1.025c-0.374 0.438-0.838 0.787-1.394 1.047-0.555 0.263-1.137 0.394-1.745 0.394v0c-0.929 0-1.697-0.387-2.306-1.162-0.608-0.773-0.913-1.805-0.912-3.097v0c0-1.494 0.398-2.693 1.194-3.596 0.794-0.901 1.746-1.351 2.857-1.352v0c0.875 0 1.591 0.208 2.145 0.625v0-2.146c0-0.705-0.016-1.228-0.048-1.569v0l-1.265-0.16c-0.043-0.16-0.043-0.363 0-0.609v0c0.737-0.053 1.655-0.165 2.754-0.336v0c0.096 0.107 0.149 0.213 0.161 0.32v0c-0.053 0.278-0.08 1.142-0.08 2.594zM289.401 180.009v0c-0.694 0-1.249 0.365-1.666 1.095-0.416 0.732-0.624 1.744-0.624 3.036v0c0 1.057 0.195 1.863 0.586 2.418 0.389 0.555 0.903 0.833 1.544 0.832v0c0.384 0 0.806-0.121 1.265-0.362 0.459-0.239 0.849-0.572 1.168-0.999v0-5.124c-0.523-0.598-1.281-0.897-2.273-0.896z" fill="#000000" fill-rule="nonzero" stroke="none" stroke-width="1" stroke-linecap="butt" stroke-linejoin="miter" stroke-miterlimit="10" stroke-dasharray="" stroke-dashoffset="0" font-family="none" font-weight="none" font-size="none" text-anchor="none" style="mix-blend-mode: normal" data-fill-palette-color="secondary" id="text-1"></path></g></g><g transform="matrix(1,0,0,1,29.33176499999999,42.53999934782608)"><svg viewBox="0 0 316.416 45.85739130434783" height="45.85739130434783" width="316.416"><g><svg viewBox="0 0 316.416 45.85739130434783" height="45.85739130434783" width="316.416"><g><svg viewBox="0 0 316.416 45.85739130434783" height="45.85739130434783" width="316.416"><g><svg viewBox="0 0 316.416 45.85739130434783" height="45.85739130434783" width="316.416"><g id="textblocktransform"><svg viewBox="0 0 316.416 45.85739130434783" height="45.85739130434783" width="316.416" id="textblock"><g><svg viewBox="0 0 316.416 45.85739130434783" height="45.85739130434783" width="316.416"><g transform="matrix(1,0,0,1,0,0)"><svg width="316.416" viewBox="1.95 -31.74 222.34 32.23" height="45.85739130434783" data-palette-color="#89939e"><path d="M24.71-22.66L24.71-22.66Q24.71-26.37 21.19-28.17L21.19-28.17Q18.9-29.3 15.67-29.3L15.67-29.3 1.95-29.3 1.95-28.03 5.86-28.03 5.86-1.27 1.95-1.27 1.95 0 15.82 0Q22.12 0 25.05-4L25.05-4Q26.56-6.1 26.56-8.59L26.56-8.59Q26.56-12.5 23.1-14.65L23.1-14.65Q21.48-15.58 19.38-15.97L19.38-15.97Q22.9-17.29 24.22-20.41L24.22-20.41Q24.71-21.58 24.71-22.66ZM10.06-28.03L14.5-28.03Q19.53-28.03 20.21-23.58L20.21-23.58Q20.31-22.95 20.31-22.27L20.31-22.27Q20.31-19.09 17.82-17.48L17.82-17.48Q16.36-16.55 14.4-16.55L14.4-16.55 10.06-16.55 10.06-28.03ZM10.06-15.23L15.33-15.23Q19.78-15.23 21.29-11.47L21.29-11.47Q21.88-10.11 21.88-8.5L21.88-8.5Q21.88-4.74 19.43-2.64L19.43-2.64Q17.82-1.27 15.58-1.27L15.58-1.27 10.06-1.27 10.06-15.23ZM34.86-10.4L34.86-10.4Q34.86-17.97 39.01-19.63L39.01-19.63Q40.09-20.02 41.26-20.02L41.26-20.02Q46.68-20.02 47.56-13.18L47.56-13.18Q47.7-12.01 47.7-10.6L47.7-10.6Q47.7-2.39 43.21-0.98L43.21-0.98Q42.33-0.73 41.4-0.73L41.4-0.73Q36.47-0.73 35.2-6.59L35.2-6.59Q34.86-8.3 34.86-10.4ZM41.4-21.24L41.4-21.24Q36.72-21.24 33.59-18.02L33.59-18.02Q30.71-15.04 30.71-10.6L30.71-10.6Q30.71-4.44 35.2-1.37L35.2-1.37Q37.94 0.49 41.26 0.49L41.26 0.49Q45.94 0.49 49.02-2.83L49.02-2.83Q51.85-5.86 51.85-10.4L51.85-10.4Q51.85-16.55 47.31-19.53L47.31-19.53Q44.63-21.24 41.4-21.24ZM59.91-10.4L59.91-10.4Q59.91-17.97 64.06-19.63L64.06-19.63Q65.13-20.02 66.3-20.02L66.3-20.02Q71.72-20.02 72.6-13.18L72.6-13.18Q72.75-12.01 72.75-10.6L72.75-10.6Q72.75-2.39 68.26-0.98L68.26-0.98Q67.38-0.73 66.45-0.73L66.45-0.73Q61.52-0.73 60.25-6.59L60.25-6.59Q59.91-8.3 59.91-10.4ZM66.45-21.24L66.45-21.24Q61.76-21.24 58.64-18.02L58.64-18.02Q55.76-15.04 55.76-10.6L55.76-10.6Q55.76-4.44 60.25-1.37L60.25-1.37Q62.98 0.49 66.3 0.49L66.3 0.49Q70.99 0.49 74.07-2.83L74.07-2.83Q76.9-5.86 76.9-10.4L76.9-10.4Q76.9-16.55 72.36-19.53L72.36-19.53Q69.67-21.24 66.45-21.24ZM89.89-1.22L89.89-1.22 87.69-1.22 87.69-8.45 90.37-10.94 97.26 0 103.75 0Q103.75-1.07 103.02-1.17L103.02-1.17Q102.82-1.22 102.53-1.22L102.53-1.22 100.77-1.22 92.91-13.33 97.5-17.63Q99.21-19.24 100.09-19.43L100.09-19.43Q100.48-19.53 100.97-19.53L100.97-19.53Q102.04-19.53 102.14-20.26L102.14-20.26Q102.19-20.51 102.19-20.75L102.19-20.75 93.89-20.75 93.89-19.53 97.55-19.53 87.69-10.4 87.69-31.74 80.36-31.74 80.36-30.52 84.03-30.52 84.03-4.15Q84.03-1.9 82.76-1.46L82.76-1.46Q82.02-1.22 80.36-1.22L80.36-1.22 80.36 0 91.11 0Q91.11-1.07 90.37-1.17L90.37-1.17Q90.18-1.22 89.89-1.22ZM112.54-0.83L112.54-0.83Q115.91-0.83 117.08-2.88L117.08-2.88Q117.52-3.61 117.52-4.49L117.52-4.49Q117.52-6.54 114.54-8.01L114.54-8.01Q113.91-8.35 112.44-8.98L112.44-8.98Q108.44-10.64 107.12-12.11L107.12-12.11Q105.7-13.72 105.7-15.87L105.7-15.87Q105.7-19.24 109.41-20.61L109.41-20.61Q111.12-21.24 113.12-21.24L113.12-21.24Q116.35-21.24 118.69-19.87L118.69-19.87Q118.69-21.29 119.37-21.48L119.37-21.48Q119.67-21.53 120.01-21.53L120.01-21.53 120.01-15.43 118.74-15.43Q118.64-19.92 113.76-19.97L113.76-19.97Q110.1-19.97 109.22-17.82L109.22-17.82Q108.97-17.24 108.97-16.6L108.97-16.6Q108.97-14.5 112-13.04L112-13.04Q112.69-12.7 114.15-12.11L114.15-12.11Q118.11-10.5 119.42-9.03L119.42-9.03Q120.84-7.47 120.84-5.32L120.84-5.32Q120.84-1.37 116.64-0.05L116.64-0.05Q115.03 0.49 113.12 0.49L113.12 0.49Q109.61 0.44 107.02-1.27L107.02-1.27Q107.02 0 106.39 0.2L106.39 0.2Q106.09 0.24 105.7 0.24L105.7 0.24 105.7-7.18 107.07-7.18Q107.17-0.88 112.54-0.83ZM143.34-24.61L143.34-24.61Q143.34-27.59 145.74-28.37L145.74-28.37Q146.32-28.56 146.96-28.56L146.96-28.56Q149.55-28.56 150.33-26.37L150.33-26.37Q150.57-25.63 150.57-24.9L150.57-24.9Q150.57-22.61 148.18-20.8L148.18-20.8Q146.81-19.78 145-19.29L145-19.29Q143.34-22.61 143.34-24.61ZM145.44-0.98L145.44-0.98Q139.98-0.98 138.56-6.45L138.56-6.45Q138.17-8.01 138.17-9.86L138.17-9.86Q138.17-14.16 140.9-16.11L140.9-16.11Q141.64-16.6 142.37-16.85L142.37-16.85Q145.64-10.69 151.89-3.32L151.89-3.32Q149.06-0.98 145.44-0.98ZM157.99-15.58L157.99-15.58 157.94-15.58 158.09-15.58 159.6-15.63Q160.73-15.63 160.87-16.21L160.87-16.21Q160.97-16.55 160.97-16.94L160.97-16.94 153.94-16.94 153.94-15.67 156.63-15.67Q156.63-10.25 154.28-6.2L154.28-6.2Q148.47-13.04 145.59-18.21L145.59-18.21Q149.64-19.34 151.3-22.46L151.3-22.46Q151.94-23.68 151.94-24.9L151.94-24.9Q151.94-28.08 149.15-29.3L149.15-29.3Q148.08-29.79 146.86-29.79L146.86-29.79Q142.27-29.79 140.71-26.61L140.71-26.61Q140.07-25.29 140.07-23.78L140.07-23.78Q140.12-21.53 141.83-17.92L141.83-17.92Q136.12-16.36 134.51-11.72L134.51-11.72Q134.02-10.25 134.02-8.59L134.02-8.59Q134.02-4.15 137.39-1.56L137.39-1.56Q140.07 0.49 143.88 0.49L143.88 0.49Q149.25 0.44 152.67-2.39L152.67-2.39Q153.4-1.51 154.82 0L154.82 0 161.7 0Q161.7-1.12 160.92-1.22L160.92-1.22Q160.73-1.27 160.48-1.27L160.48-1.27 158.68-1.27Q157.5-2.54 155.21-5.13L155.21-5.13Q157.99-9.42 157.99-15.58ZM197.49-2.25L197.49-2.25Q197.49-0.2 198.08 0.1L198.08 0.1Q198.42 0.24 199 0.24L199 0.24 199-8.98 197.83-8.98Q195.34-0.93 187.87-0.88L187.87-0.88Q181.52-0.88 179.23-7.28L179.23-7.28Q178.11-10.4 178.11-14.65L178.11-14.65Q178.11-23.78 183.13-27.05L183.13-27.05Q185.33-28.42 188.02-28.42L188.02-28.42Q194.12-28.42 196.86-22.66L196.86-22.66Q197.34-21.63 197.69-20.56L197.69-20.56 198.86-20.56 198.71-29.54Q197.64-29.54 197.39-28.86L197.39-28.86Q197.25-28.27 197.25-26.95L197.25-26.95Q195.83-28.37 192.41-29.25L192.41-29.25Q190.17-29.79 187.82-29.79L187.82-29.79Q180.11-29.79 176.01-24.07L176.01-24.07Q173.17-20.02 173.17-14.75L173.17-14.75Q173.17-8.35 177.13-4L177.13-4Q181.33 0.49 188.07 0.49L188.07 0.49Q193 0.44 197.49-2.25ZM207.3-10.4L207.3-10.4Q207.3-17.97 211.45-19.63L211.45-19.63Q212.53-20.02 213.7-20.02L213.7-20.02Q219.12-20.02 220-13.18L220-13.18Q220.14-12.01 220.14-10.6L220.14-10.6Q220.14-2.39 215.65-0.98L215.65-0.98Q214.77-0.73 213.84-0.73L213.84-0.73Q208.91-0.73 207.64-6.59L207.64-6.59Q207.3-8.3 207.3-10.4ZM213.84-21.24L213.84-21.24Q209.16-21.24 206.03-18.02L206.03-18.02Q203.15-15.04 203.15-10.6L203.15-10.6Q203.15-4.44 207.64-1.37L207.64-1.37Q210.38 0.49 213.7 0.49L213.7 0.49Q218.39 0.49 221.46-2.83L221.46-2.83Q224.29-5.86 224.29-10.4L224.29-10.4Q224.29-16.55 219.75-19.53L219.75-19.53Q217.07-21.24 213.84-21.24Z" opacity="1" transform="matrix(1,0,0,1,0,0)" fill="#000000" class="wordmark-text-0" data-fill-palette-color="primary" id="text-0"></path></svg></g></svg></g></svg></g></svg></g><g></g></svg></g></svg></g></svg></g></svg></g><defs></defs></svg><rect width="375.07953" height="130.93739" fill="none" stroke="none" visibility="hidden"></rect></g></svg></g></svg>